<svg width="1056" height="146" viewBox="0 0 1056 146" fill="none" xmlns="http://www.w3.org/2000/svg">
<g clip-path="url(#clip0_1796_5148)">
<path d="M114.714 109.836V2.5918H129.602V109.836H114.714Z" fill="#0F1011"/>
<path d="M0 109.836L48.0603 0H50.4876L98.5476 109.836H80.9095L68.7731 80.676H20.7128L8.73823 109.836H0ZM23.1401 74.52H66.184L44.8238 22.032L23.1401 74.52Z" fill="#0F1011"/>
<path d="M1016.52 109.836V36.6116H1025.91L1029.63 50.2196C1031.03 47.8436 1032.97 45.4676 1035.45 43.0916C1038.04 40.7156 1040.96 38.6636 1044.19 36.9356C1047.54 35.0996 1050.93 33.9116 1054.39 33.3716L1056.01 44.5496C1053.2 44.5496 1050.18 45.1436 1046.94 46.3316C1043.71 47.5196 1040.58 49.0316 1037.56 50.8676C1034.65 52.7036 1032.16 54.5936 1030.11 56.5376V109.836H1016.52Z" fill="#0F1011"/>
<path d="M962.312 111.779C956.27 111.779 950.767 110.375 945.807 107.567C940.845 104.759 936.905 100.655 933.992 95.2555C931.082 89.7475 929.624 83.1055 929.624 75.3295C929.624 67.6615 930.812 61.2355 933.185 56.0515C935.666 50.8675 938.847 46.7095 942.732 43.5775C946.723 40.4455 950.983 38.1775 955.514 36.7735C960.047 35.3695 964.416 34.6675 968.622 34.6675C974.773 34.6675 980.327 36.0715 985.29 38.8795C990.252 41.6875 994.189 45.7915 997.102 51.1915C1000.02 56.5915 1001.47 63.2335 1001.47 71.1175C1001.47 78.7855 1000.23 85.2115 997.75 90.3955C995.269 95.5795 992.031 99.7375 988.041 102.869C984.158 106.001 979.949 108.269 975.418 109.673C970.888 111.077 966.519 111.779 962.312 111.779ZM965.385 106.271C969.162 106.271 972.397 105.245 975.094 103.193C977.792 101.141 979.949 98.4955 981.569 95.2555C983.294 91.9075 984.534 88.3435 985.29 84.5635C986.154 80.7835 986.585 77.1115 986.585 73.5475C986.585 67.6075 985.829 62.2075 984.32 57.3475C982.916 52.3795 980.489 48.3835 977.038 45.3595C973.693 42.3355 969.054 40.8235 963.12 40.8235C956.648 43.3075 951.901 47.6275 948.88 53.7835C945.859 59.9395 944.349 66.5275 944.349 73.5475C944.349 79.2715 945.051 84.6715 946.453 89.7475C947.857 94.7155 950.068 98.7115 953.089 101.735C956.216 104.759 960.317 106.271 965.385 106.271Z" fill="#0F1011"/>
<path d="M884.094 109.836V36.6116H893.481L897.202 50.2196C898.603 47.8436 900.547 45.4676 903.029 43.0916C905.618 40.7156 908.529 38.6636 911.766 36.9356C915.111 35.0996 918.508 33.9116 921.961 33.3716L923.578 44.5496C920.773 44.5496 917.752 45.1436 914.517 46.3316C911.28 47.5196 908.151 49.0316 905.132 50.8676C902.219 52.7036 899.737 54.5936 897.688 56.5376V109.836H884.094Z" fill="#0F1011"/>
<path d="M832.577 109.836V36.6116H841.963L845.686 50.2196C847.087 47.8436 849.029 45.4676 851.51 43.0916C854.099 40.7156 857.012 38.6636 860.25 36.9356C863.592 35.0996 866.992 33.9116 870.442 33.3716L872.062 44.5496C869.257 44.5496 866.236 45.1436 862.998 46.3316C859.764 47.5196 856.634 49.0316 853.613 50.8676C850.703 52.7036 848.221 54.5936 846.169 56.5376V109.836H832.577Z" fill="#0F1011"/>
<path d="M796.589 109.836V36.6118H810.019V109.836H796.589Z" fill="#0F1011"/>
<path d="M653.919 109.836L659.906 2.5918H674.955L712.335 84.4019L748.097 2.5918H764.602L770.591 109.836H754.086L749.714 17.6578H749.069L708.29 109.836H706.024L666.055 21.3838H665.408L661.039 109.836H653.919Z" fill="#0F1011"/>
<path d="M803.413 2.8999C803.98 2.8999 804.491 3.24467 804.698 3.77748L805.388 5.44801C806.55 8.27534 808.754 10.5484 811.545 11.7979L813.504 12.6692C813.758 12.7828 813.974 12.9675 814.126 13.2011C814.277 13.4347 814.358 13.7072 814.358 13.9856C814.358 14.264 814.277 14.5365 814.126 14.7701C813.974 15.0037 813.758 15.1884 813.504 15.302L811.429 16.2234C808.709 17.4442 806.545 19.6392 805.363 22.3758L804.689 23.921C804.584 24.1728 804.407 24.3878 804.18 24.539C803.953 24.6903 803.686 24.771 803.413 24.771C803.14 24.771 802.873 24.6903 802.646 24.539C802.419 24.3878 802.242 24.1728 802.137 23.921L801.463 22.3758C800.282 19.6388 798.118 17.4437 795.397 16.2234L793.328 15.2988C793.077 15.1829 792.864 14.9975 792.715 14.7645C792.566 14.5315 792.487 14.2606 792.487 13.984C792.487 13.7074 792.566 13.4365 792.715 13.2035C792.864 12.9705 793.077 12.7851 793.328 12.6692L795.284 11.7979C798.073 10.5464 800.275 8.27225 801.435 5.44488L802.125 3.77435C802.227 3.51605 802.404 3.29448 802.634 3.1385C802.864 2.98253 803.135 2.89938 803.413 2.8999Z" fill="#0F1011"/>
<path d="M556.465 145.799C551.286 145.799 546.539 145.151 542.225 143.855C538.016 142.559 534.673 140.561 532.192 137.861C529.71 135.269 528.468 131.975 528.468 127.979C528.468 124.847 529.386 121.607 531.22 118.259C533.161 115.019 536.668 112.265 541.739 109.997C539.365 109.133 537.532 107.837 536.236 106.109C534.943 104.381 534.295 102.167 534.295 99.4675C534.295 96.7675 535.372 94.0675 537.532 91.3675C539.798 88.5595 542.6 85.8595 545.945 83.2675C542.387 81.4315 539.474 78.7315 537.208 75.1675C534.943 71.6035 533.809 67.2295 533.809 62.0455C533.809 56.9695 534.727 52.7035 536.56 49.2475C538.393 45.7915 540.767 42.9835 543.68 40.8235C546.593 38.6635 549.72 37.0975 553.065 36.1255C556.519 35.1535 559.807 34.6675 562.936 34.6675C565.742 34.6675 568.439 35.0995 571.028 35.9635C573.726 36.8275 576.099 37.8535 578.148 39.0415L592.388 34.9915L595.623 41.9575L585.592 46.9795C586.561 48.7075 587.318 50.5975 587.858 52.6495C588.395 54.5935 588.665 56.8075 588.665 59.2915C588.665 64.3675 587.695 68.6335 585.754 72.0895C583.918 75.5455 581.491 78.2995 578.472 80.3515C575.451 82.4035 572.214 83.9155 568.763 84.8875C565.31 85.7515 562.018 86.1835 558.892 86.1835C558.136 86.1835 557.38 86.1835 556.627 86.1835C555.871 86.0755 555.115 85.9675 554.361 85.8595C553.389 86.1835 552.201 86.8315 550.8 87.8035C549.399 88.6675 548.157 89.7475 547.079 91.0435C546.107 92.3395 545.621 93.6895 545.621 95.0935C545.621 97.4695 547.295 98.9815 550.638 99.6295C554.091 100.277 558.946 100.601 565.202 100.601C574.803 100.601 582.463 101.519 588.182 103.355C594.005 105.083 596.919 108.809 596.919 114.533C596.919 119.609 595.139 124.523 591.578 129.275C588.128 134.135 583.381 138.077 577.338 141.101C571.298 144.233 564.338 145.799 556.465 145.799ZM560.995 81.1615C570.92 81.1615 575.883 74.4115 575.883 60.9115C575.883 57.1315 575.181 53.6755 573.78 50.5435C572.484 47.4115 570.704 44.8735 568.439 42.9295C566.174 40.9855 563.693 40.0135 560.995 40.0135C556.141 40.0135 552.417 41.9575 549.828 45.8455C547.349 49.6255 546.107 54.6475 546.107 60.9115C546.107 66.5275 547.563 71.3335 550.476 75.3295C553.389 79.2175 556.897 81.1615 560.995 81.1615ZM559.054 138.347C565.526 138.347 571.136 137.105 575.883 134.621C580.738 132.137 584.512 129.113 587.209 125.549C589.907 122.093 591.254 118.907 591.254 115.991C589.097 115.127 586.454 114.425 583.327 113.885C580.198 113.345 577.014 112.967 573.78 112.751C570.65 112.643 567.845 112.589 565.364 112.589C561.91 112.589 558.676 112.535 555.655 112.427C552.741 112.319 550.098 112.049 547.725 111.617C546.215 112.913 544.652 114.803 543.032 117.287C541.415 119.771 540.605 122.417 540.605 125.225C540.605 128.897 542.009 131.975 544.814 134.459C547.725 137.051 552.471 138.347 559.054 138.347Z" fill="#0F1011"/>
<path d="M456.298 109.835V58.9675C456.298 55.1875 455.76 52.1635 454.68 49.8955C453.708 47.5195 452.577 45.6835 451.281 44.3875C449.988 42.9835 448.908 41.9575 448.046 41.3095L456.298 35.1535L469.568 46.9795C473.559 43.1995 477.282 40.2295 480.732 38.0695C484.294 35.8015 488.446 34.6675 493.193 34.6675C495.674 34.6675 498.372 35.3155 501.285 36.6115C504.303 37.9075 506.893 40.3375 509.05 43.9015C511.21 47.3575 512.287 52.4335 512.287 59.1295V109.835H498.534V60.7495C498.534 55.6735 497.616 51.7855 495.782 49.0855C494.057 46.2775 490.82 44.8735 486.073 44.8735C481.435 44.8735 476.094 47.8975 470.054 53.9455V109.835H456.298Z" fill="#0F1011"/>
<path d="M417.72 109.836V36.6118H431.152V109.836H417.72Z" fill="#0F1011"/>
<path d="M382.752 111.78C378.329 111.78 374.606 110.484 371.588 107.892C368.566 105.3 367.054 100.926 367.054 94.7705V42.4445L353.948 39.8525V36.6125H367.054V30.7805L380.649 20.8984V36.6125H399.905V42.4445H380.649V95.5805C380.649 98.6045 381.243 100.98 382.428 102.708C383.724 104.436 386.097 105.3 389.548 105.3C391.057 105.3 392.731 105.084 394.565 104.652C396.398 104.112 398.18 103.518 399.905 102.87V107.406C397.532 108.486 394.835 109.458 391.813 110.322C388.9 111.294 385.881 111.78 382.752 111.78Z" fill="#0F1011"/>
<path d="M329.497 111.78C325.075 111.78 321.351 110.484 318.33 107.892C315.311 105.3 313.799 100.926 313.799 94.7705V42.4445L300.694 39.8525V36.6125H313.799V30.7805L327.394 20.8984V36.6125H346.65V42.4445H327.394V95.5805C327.394 98.6045 327.985 100.98 329.173 102.708C330.467 104.436 332.84 105.3 336.293 105.3C337.802 105.3 339.476 105.084 341.31 104.652C343.143 104.112 344.922 103.518 346.65 102.87V107.406C344.277 108.486 341.58 109.458 338.559 110.322C335.645 111.294 332.624 111.78 329.497 111.78Z" fill="#0F1011"/>
<path d="M273.442 109.836V36.6118H286.872V109.836H273.442Z" fill="#0F1011"/>
<path d="M197.964 109.836V2.5918H261.233V13.4458L231.298 8.42379C228.061 8.42379 225.094 8.69379 222.399 9.23379C219.702 9.66579 216.789 10.3138 213.659 11.1778V50.5439H247.965V56.6999H213.659V109.836H197.964Z" fill="#0F1011"/>
<path d="M280.495 2.8999C281.062 2.8999 281.573 3.24467 281.78 3.77748L282.47 5.44801C283.632 8.27534 285.836 10.5484 288.627 11.7979L290.586 12.6692C290.84 12.7828 291.056 12.9675 291.208 13.2011C291.359 13.4347 291.44 13.7072 291.44 13.9856C291.44 14.264 291.359 14.5365 291.208 14.7701C291.056 15.0037 290.84 15.1884 290.586 15.302L288.511 16.2234C285.791 17.4442 283.627 19.6392 282.445 22.3758L281.771 23.921C281.666 24.1728 281.489 24.3878 281.262 24.539C281.035 24.6903 280.768 24.771 280.495 24.771C280.222 24.771 279.955 24.6903 279.728 24.539C279.501 24.3878 279.324 24.1728 279.219 23.921L278.545 22.3758C277.364 19.6388 275.2 17.4437 272.479 16.2234L270.41 15.2988C270.159 15.1829 269.946 14.9975 269.797 14.7645C269.648 14.5315 269.569 14.2606 269.569 13.984C269.569 13.7074 269.648 13.4365 269.797 13.2035C269.946 12.9705 270.159 12.7851 270.41 12.6692L272.366 11.7979C275.155 10.5464 277.357 8.27225 278.517 5.44488L279.207 3.77435C279.309 3.51605 279.486 3.29448 279.716 3.1385C279.946 2.98253 280.217 2.89938 280.495 2.8999Z" fill="#0F1011"/>
<path d="M424.495 2.8999C425.062 2.8999 425.573 3.24467 425.78 3.77748L426.47 5.44801C427.632 8.27534 429.836 10.5484 432.627 11.7979L434.586 12.6692C434.84 12.7828 435.056 12.9675 435.208 13.2011C435.359 13.4347 435.44 13.7072 435.44 13.9856C435.44 14.264 435.359 14.5365 435.208 14.7701C435.056 15.0037 434.84 15.1884 434.586 15.302L432.511 16.2234C429.791 17.4442 427.627 19.6392 426.445 22.3758L425.771 23.921C425.666 24.1728 425.489 24.3878 425.262 24.539C425.035 24.6903 424.768 24.771 424.495 24.771C424.222 24.771 423.955 24.6903 423.728 24.539C423.501 24.3878 423.324 24.1728 423.219 23.921L422.545 22.3758C421.364 19.6388 419.2 17.4437 416.479 16.2234L414.41 15.2988C414.159 15.1829 413.946 14.9975 413.797 14.7645C413.648 14.5315 413.569 14.2606 413.569 13.984C413.569 13.7074 413.648 13.4365 413.797 13.2035C413.946 12.9705 414.159 12.7851 414.41 12.6692L416.366 11.7979C419.155 10.5464 421.357 8.27225 422.517 5.44488L423.207 3.77435C423.309 3.51605 423.486 3.29448 423.716 3.1385C423.946 2.98253 424.217 2.89938 424.495 2.8999Z" fill="#0F1011"/>
</g>
<defs>
<clipPath id="clip0_1796_5148">
<rect width="1055.7" height="145.8" fill="white"/>
</clipPath>
</defs>
</svg>
